<svg width="312" height="275" viewBox="0 0 312 275" fill="none" xmlns="http://www.w3.org/2000/svg">
<g clip-path="url(#clip0_28_1110)">
<g opacity="0.9">
<path d="M311.061 178.351C313.909 139.021 246.789 102.139 161.143 95.9734C75.4975 89.8077 3.75875 116.693 0.910284 156.023C-1.93818 195.353 65.1823 232.234 150.828 238.4C236.474 244.565 308.213 217.68 311.061 178.351Z" stroke="white" stroke-opacity="0.3" stroke-width="0.8" stroke-miterlimit="10"/>
<path d="M305.361 170.139C306.478 131.687 239.491 98.553 155.74 96.1331C71.9896 93.7133 3.19015 122.923 2.07242 161.376C0.954686 199.829 67.942 232.962 151.693 235.382C235.443 237.802 304.243 208.592 305.361 170.139Z" stroke="white" stroke-opacity="0.3" stroke-width="0.8" stroke-miterlimit="10"/>
<path d="M152.617 232.404C234.459 231.08 300.309 199.541 299.697 161.961C299.085 124.38 232.243 94.9893 150.401 96.3139C68.5593 97.6384 2.7094 129.177 3.32128 166.757C3.93316 204.338 70.7751 233.729 152.617 232.404Z" stroke="white" stroke-opacity="0.3" stroke-width="0.8" stroke-miterlimit="10"/>
<path d="M153.501 229.401C233.443 224.331 296.35 190.463 294.008 153.755C291.666 117.047 224.961 91.3996 145.019 96.4699C65.0774 101.54 2.17048 135.408 4.51271 172.116C6.85495 208.824 73.5594 234.471 153.501 229.401Z" stroke="white" stroke-opacity="0.3" stroke-width="0.8" stroke-miterlimit="10"/>
<path d="M154.368 226.409C232.42 217.598 292.394 181.409 288.325 145.578C284.255 109.748 217.684 87.8446 139.632 96.6557C61.5811 105.467 1.60688 141.656 5.67612 177.486C9.74536 213.317 76.3172 235.22 154.368 226.409Z" stroke="white" stroke-opacity="0.3" stroke-width="0.8" stroke-miterlimit="10"/>
<path d="M155.219 223.441C231.365 210.887 288.392 172.365 282.593 137.4C276.793 102.435 210.363 84.2677 134.217 96.8221C58.0702 109.377 1.04278 147.899 6.84234 182.864C12.6419 217.829 79.0722 235.996 155.219 223.441Z" stroke="white" stroke-opacity="0.3" stroke-width="0.8" stroke-miterlimit="10"/>
<path d="M156.113 220.435C230.363 204.131 284.452 163.285 276.923 129.201C269.394 95.1172 203.099 80.7031 128.848 97.0062C54.5977 113.309 0.50914 154.156 8.03804 188.24C15.5669 222.324 81.8623 236.738 156.113 220.435Z" stroke="white" stroke-opacity="0.3" stroke-width="0.8" stroke-miterlimit="10"/>
<path d="M156.983 217.456C229.328 197.412 280.47 154.236 271.211 121.019C261.953 87.8013 195.8 77.1217 123.455 97.1651C51.1105 117.209 -0.0310948 160.385 9.22744 193.602C18.486 226.82 84.6386 237.499 156.983 217.456Z" stroke="white" stroke-opacity="0.3" stroke-width="0.8" stroke-miterlimit="10"/>
<path d="M157.879 214.431C228.317 190.633 276.509 145.127 265.518 112.789C254.526 80.4523 188.515 73.5298 118.076 97.3276C47.6382 121.125 -0.553326 166.632 10.4378 198.969C21.4289 231.306 87.4405 238.228 157.879 214.431Z" stroke="white" stroke-opacity="0.3" stroke-width="0.8" stroke-miterlimit="10"/>
<path d="M158.764 211.448C227.308 183.907 272.563 136.072 259.844 104.606C247.124 73.1395 181.247 69.9576 112.703 97.4986C44.1593 125.04 -1.09537 172.874 11.6241 204.34C24.3435 235.807 90.2204 238.989 158.764 211.448Z" stroke="white" stroke-opacity="0.3" stroke-width="0.8" stroke-miterlimit="10"/>
<path d="M159.642 208.481C226.286 177.201 268.597 127.036 254.148 96.4357C239.698 65.8351 173.96 66.3858 107.316 97.6658C40.6727 128.946 -1.63891 179.11 12.8106 209.711C27.2601 240.311 92.9989 239.761 159.642 208.481Z" stroke="white" stroke-opacity="0.3" stroke-width="0.8" stroke-miterlimit="10"/>
<path d="M160.535 205.467C225.274 170.436 264.638 117.941 248.456 88.2144C232.274 58.4882 166.674 62.7879 101.935 97.8183C37.1961 132.849 -2.16735 185.344 14.0146 215.071C30.1965 244.797 95.7961 240.497 160.535 205.467Z" stroke="white" stroke-opacity="0.3" stroke-width="0.8" stroke-miterlimit="10"/>
<path d="M161.402 202.479C224.244 163.708 260.672 108.892 242.766 80.0432C224.86 51.1947 159.401 59.2384 96.5596 98.0093C33.7178 136.78 -2.71008 191.597 15.1957 220.445C33.1015 249.294 98.5604 241.25 161.402 202.479Z" stroke="white" stroke-opacity="0.3" stroke-width="0.8" stroke-miterlimit="10"/>
<path d="M162.299 199.459C223.238 156.933 256.72 99.7825 237.082 71.8105C217.444 43.8384 152.123 55.637 91.1837 98.1634C30.2442 140.69 -3.2373 197.84 16.4006 225.812C36.0386 253.784 101.359 241.985 162.299 199.459Z" stroke="white" stroke-opacity="0.3" stroke-width="0.8" stroke-miterlimit="10"/>
<path d="M163.155 196.445C222.196 150.174 252.733 90.692 231.363 63.5876C209.993 36.4832 144.807 52.0206 85.7666 98.2913C26.7262 144.562 -3.81146 204.044 17.5588 231.149C38.9291 258.253 104.115 242.716 163.155 196.445Z" stroke="white" stroke-opacity="0.3" stroke-width="0.8" stroke-miterlimit="10"/>
<path d="M164.01 193.473C221.155 143.456 248.758 81.6476 225.663 55.42C202.568 29.1925 137.521 48.4774 80.3768 98.4942C23.2321 148.511 -4.37086 210.319 18.7238 236.547C41.8184 262.774 106.865 243.49 164.01 193.473Z" stroke="white" stroke-opacity="0.3" stroke-width="0.8" stroke-miterlimit="10"/>
<path d="M164.892 190.469C220.129 136.709 244.784 72.5771 219.961 47.2256C195.139 21.8741 130.238 44.9036 75.0014 98.6635C19.765 152.423 -4.89019 216.556 19.9325 241.907C44.7552 267.259 109.656 244.229 164.892 190.469Z" stroke="white" stroke-opacity="0.3" stroke-width="0.8" stroke-miterlimit="10"/>
<path d="M165.778 187.478C219.115 129.971 240.827 63.5062 214.273 39.0245C187.718 14.5428 122.952 41.315 69.6147 98.8219C16.2771 156.329 -5.43485 222.794 21.1198 247.275C47.6745 271.757 112.44 244.985 165.778 187.478Z" stroke="white" stroke-opacity="0.3" stroke-width="0.8" stroke-miterlimit="10"/>
<path d="M166.645 184.478C218.085 123.228 236.861 54.439 208.584 30.8328C180.306 7.2266 115.682 37.7428 64.2422 98.9926C12.8022 160.242 -5.97464 229.032 22.303 252.638C50.5806 276.244 115.205 245.728 166.645 184.478Z" stroke="white" stroke-opacity="0.3" stroke-width="0.8" stroke-miterlimit="10"/>
<path d="M167.524 181.467C217.06 116.472 232.891 45.3551 202.885 22.6224C172.878 -0.110354 108.395 34.1497 58.8593 99.1444C9.32319 164.139 -6.50837 235.256 23.4985 257.989C53.5053 280.722 117.988 246.462 167.524 181.467Z" stroke="white" stroke-opacity="0.3" stroke-width="0.8" stroke-miterlimit="10"/>
<path d="M168.404 178.471C216.036 109.734 228.922 36.2918 197.187 14.4321C165.451 -7.42768 101.111 30.5733 53.4792 99.3096C5.84722 168.046 -7.03934 241.489 24.6962 263.348C56.4318 285.208 120.772 247.207 168.404 178.471Z" stroke="white" stroke-opacity="0.3" stroke-width="0.8" stroke-miterlimit="10"/>
<path d="M169.29 175.527C215.034 103.048 224.988 27.273 191.522 6.27821C158.057 -14.7166 93.8444 27.0193 48.1001 99.4979C2.35579 171.976 -7.59811 247.752 25.8674 268.747C59.333 289.741 123.545 248.005 169.29 175.527Z" stroke="white" stroke-opacity="0.3" stroke-width="0.8" stroke-miterlimit="10"/>
</g>
</g>
<defs>
<clipPath id="clip0_28_1110">
<rect width="312" height="275" fill="white"/>
</clipPath>
</defs>
</svg>
