<svg width="509" height="450" viewBox="0 0 509 450" fill="none" xmlns="http://www.w3.org/2000/svg">
<g clip-path="url(#clip0_3_192)">
<g opacity="0.9">
<path d="M507.468 291.846C512.115 227.488 402.614 167.137 262.891 157.047C123.167 146.958 6.1321 190.952 1.48508 255.31C-3.16193 319.668 106.339 380.019 246.062 390.109C385.786 400.198 502.821 356.204 507.468 291.846Z" stroke="white" stroke-opacity="0.3" stroke-width="0.8" stroke-miterlimit="10"/>
<path d="M498.168 278.409C499.992 215.487 390.708 161.268 254.076 157.309C117.445 153.349 5.20453 201.147 3.38105 264.07C1.55757 326.992 110.841 381.211 247.473 385.17C384.105 389.13 496.345 341.332 498.168 278.409Z" stroke="white" stroke-opacity="0.3" stroke-width="0.8" stroke-miterlimit="10"/>
<path d="M248.981 380.298C382.498 378.13 489.927 326.522 488.928 265.027C487.93 203.532 378.884 155.437 245.366 157.605C111.848 159.772 4.42006 211.381 5.41829 272.876C6.41651 334.371 115.463 382.465 248.981 380.298Z" stroke="white" stroke-opacity="0.3" stroke-width="0.8" stroke-miterlimit="10"/>
<path d="M250.424 375.383C380.842 367.087 483.469 311.666 479.648 251.599C475.827 191.531 367.004 149.563 236.586 157.86C106.168 166.157 3.54113 221.577 7.36227 281.644C11.1834 341.712 120.006 383.68 250.424 375.383Z" stroke="white" stroke-opacity="0.3" stroke-width="0.8" stroke-miterlimit="10"/>
<path d="M251.838 370.487C379.172 356.069 477.015 296.851 470.376 238.219C463.737 179.588 355.131 143.746 227.798 158.164C100.464 172.582 2.62158 231.8 9.26018 290.432C15.8988 349.063 124.505 384.906 251.838 370.487Z" stroke="white" stroke-opacity="0.3" stroke-width="0.8" stroke-miterlimit="10"/>
<path d="M253.225 365.631C377.451 345.088 470.486 282.051 461.025 224.836C451.563 167.621 343.188 137.893 218.962 158.436C94.7362 178.98 1.70116 242.016 11.1626 299.231C20.6241 356.447 128.999 386.175 253.225 365.631Z" stroke="white" stroke-opacity="0.3" stroke-width="0.8" stroke-miterlimit="10"/>
<path d="M254.684 360.711C375.817 334.033 464.058 267.193 451.775 211.42C439.492 155.646 331.338 132.06 210.204 158.737C89.0714 185.415 0.830711 252.255 13.1134 308.029C25.3962 363.802 133.551 387.389 254.684 360.711Z" stroke="white" stroke-opacity="0.3" stroke-width="0.8" stroke-miterlimit="10"/>
<path d="M256.105 355.837C374.129 323.038 457.562 252.386 442.457 198.03C427.353 143.675 319.431 126.199 201.407 158.997C83.3824 191.796 -0.0505105 262.448 15.054 316.804C30.1584 371.159 138.08 388.635 256.105 355.837Z" stroke="white" stroke-opacity="0.3" stroke-width="0.8" stroke-miterlimit="10"/>
<path d="M257.565 350.887C372.479 311.945 451.099 237.48 433.168 184.565C415.237 131.649 307.545 120.321 192.631 159.263C77.7175 198.205 -0.902583 272.67 17.0284 325.585C34.9594 378.501 142.651 389.828 257.565 350.887Z" stroke="white" stroke-opacity="0.3" stroke-width="0.8" stroke-miterlimit="10"/>
<path d="M259.01 346.005C370.833 300.938 444.662 222.663 423.912 171.173C403.161 119.683 295.689 114.476 183.865 159.543C72.0423 204.61 -1.78672 282.885 18.9639 334.375C39.7145 385.865 147.187 391.072 259.01 346.005Z" stroke="white" stroke-opacity="0.3" stroke-width="0.8" stroke-miterlimit="10"/>
<path d="M260.442 341.15C369.165 289.965 438.193 207.878 414.62 157.804C391.047 107.73 283.8 108.631 175.077 159.817C66.3539 211.002 -2.67364 293.089 20.8994 343.163C44.4725 393.237 151.719 392.335 260.442 341.15Z" stroke="white" stroke-opacity="0.3" stroke-width="0.8" stroke-miterlimit="10"/>
<path d="M261.899 336.218C367.515 278.896 431.733 192.994 405.334 144.351C378.934 95.7079 271.915 102.744 166.298 160.066C60.6821 217.389 -3.53578 303.291 22.8636 351.934C49.263 400.577 156.283 393.541 261.899 336.218Z" stroke="white" stroke-opacity="0.3" stroke-width="0.8" stroke-miterlimit="10"/>
<path d="M263.313 331.329C365.834 267.886 425.263 178.187 396.051 130.98C366.84 83.7732 260.049 96.9356 157.528 160.379C55.0076 223.822 -4.42124 313.522 24.7905 360.728C54.0021 407.935 160.792 394.773 263.313 331.329Z" stroke="white" stroke-opacity="0.3" stroke-width="0.8" stroke-miterlimit="10"/>
<path d="M264.776 326.387C364.193 256.799 418.815 163.28 386.778 117.508C354.74 71.7356 248.175 91.0424 148.758 160.631C49.3406 230.219 -5.28145 323.738 26.7561 369.51C58.7936 415.283 165.359 395.976 264.776 326.387Z" stroke="white" stroke-opacity="0.3" stroke-width="0.8" stroke-miterlimit="10"/>
<path d="M266.173 321.456C362.492 245.74 412.312 148.405 377.448 104.052C342.584 59.6997 236.24 85.1245 139.921 160.84C43.6015 236.556 -6.21792 333.891 28.6458 378.244C63.5095 422.596 169.854 397.171 266.173 321.456Z" stroke="white" stroke-opacity="0.3" stroke-width="0.8" stroke-miterlimit="10"/>
<path d="M267.568 316.592C360.794 234.746 405.826 133.605 368.149 90.6874C330.472 47.7695 224.354 79.3267 131.128 161.172C37.9013 243.018 -7.13047 344.159 30.5464 387.077C68.2232 429.995 174.341 398.437 267.568 316.592Z" stroke="white" stroke-opacity="0.3" stroke-width="0.8" stroke-miterlimit="10"/>
<path d="M269.007 311.677C359.12 223.706 399.343 118.762 358.847 77.2782C318.351 35.794 212.471 73.4787 122.358 161.449C32.2449 249.42 -7.97788 354.364 32.5181 395.848C73.014 437.332 178.894 399.648 269.007 311.677Z" stroke="white" stroke-opacity="0.3" stroke-width="0.8" stroke-miterlimit="10"/>
<path d="M270.452 306.782C357.467 212.68 392.888 103.919 349.567 63.8583C306.245 23.7973 200.586 67.6064 113.57 161.709C26.5547 255.811 -8.86627 364.572 34.4553 404.633C77.7769 444.694 183.436 400.885 270.452 306.782Z" stroke="white" stroke-opacity="0.3" stroke-width="0.8" stroke-miterlimit="10"/>
<path d="M271.866 301.873C355.786 201.646 386.418 89.082 340.286 50.4536C294.154 11.8253 188.725 61.7608 104.806 161.988C20.8859 262.215 -9.74681 374.779 36.3856 413.408C82.518 452.036 187.946 402.1 271.866 301.873Z" stroke="white" stroke-opacity="0.3" stroke-width="0.8" stroke-miterlimit="10"/>
<path d="M273.3 296.946C354.114 190.591 379.942 74.2175 330.988 37.0185C282.035 -0.180538 176.838 55.8814 96.0239 162.236C15.2102 268.591 -10.6176 384.965 38.3359 422.164C87.2894 459.363 192.486 403.301 273.3 296.946Z" stroke="white" stroke-opacity="0.3" stroke-width="0.8" stroke-miterlimit="10"/>
<path d="M274.736 292.043C352.443 179.566 373.467 59.3866 321.693 23.6161C269.919 -12.1544 164.954 50.029 87.2467 162.507C9.53942 274.984 -11.4839 395.163 40.2899 430.934C92.0636 466.704 197.029 404.521 274.736 292.043Z" stroke="white" stroke-opacity="0.3" stroke-width="0.8" stroke-miterlimit="10"/>
<path d="M276.181 287.226C350.809 168.624 367.047 44.6286 312.451 10.2734C257.855 -24.0817 153.099 44.2133 78.4711 162.815C3.84336 281.416 -12.3955 405.412 42.2005 439.767C96.7965 474.122 201.553 405.827 276.181 287.226Z" stroke="white" stroke-opacity="0.3" stroke-width="0.8" stroke-miterlimit="10"/>
</g>
</g>
<defs>
<clipPath id="clip0_3_192">
<rect width="509" height="450" fill="white"/>
</clipPath>
</defs>
</svg>
