<svg width="30" height="19" viewBox="0 0 30 19" fill="none" xmlns="http://www.w3.org/2000/svg">
<g clip-path="url(#clip0_3_111)">
<path d="M14.9997 8.45183C23.2838 8.45183 29.9995 6.55982 29.9995 4.22591C29.9995 1.89201 23.2838 0 14.9997 0C6.71561 0 0 1.89201 0 4.22591C0 6.55982 6.71561 8.45183 14.9997 8.45183Z" fill="#FCD227"/>
<path d="M14.9997 13.5619C23.2838 13.5619 29.9995 11.6699 29.9995 9.33602C29.9995 7.00211 23.2838 5.11011 14.9997 5.11011C6.71561 5.11011 0 7.00211 0 9.33602C0 11.6699 6.71561 13.5619 14.9997 13.5619Z" fill="#FCD227"/>
<path d="M14.9997 19C23.2838 19 29.9995 17.108 29.9995 14.7741C29.9995 12.4402 23.2838 10.5482 14.9997 10.5482C6.71561 10.5482 0 12.4402 0 14.7741C0 17.108 6.71561 19 14.9997 19Z" fill="#FCD227"/>
</g>
<defs>
<clipPath id="clip0_3_111">
<rect width="30" height="19" fill="white"/>
</clipPath>
</defs>
</svg>
